<svg width="19" height="18" fill="none" xmlns="http://www.w3.org/2000/svg"><path fill-rule="evenodd" clip-rule="evenodd" d="M4.013 1.92c0 1.046-.797 1.893-2.043 1.893-1.197 0-1.994-.847-1.97-1.894C-.023.822.774 0 1.995 0 3.217 0 3.99.822 4.014 1.92zM.1 17.496V5.308h3.788v12.188H.1zm6.825-8.298c0-1.52-.05-2.816-.1-3.888h3.29l.175 1.67h.075c.499-.773 1.745-1.943 3.764-1.943 2.492 0 4.36 1.645 4.36 5.232v7.23h-3.787v-6.755c0-1.571-.548-2.642-1.919-2.642-1.047 0-1.67.723-1.919 1.42-.1.25-.15.598-.15.948v7.029H6.928v-8.3h-.002z" fill="#fff"/></svg>