<svg width="26" height="36" fill="none" xmlns="http://www.w3.org/2000/svg"><path d="M13 36c3.447 0 6.754-1.328 9.192-3.69C24.631 29.947 26 26.742 26 23.4V12.6c0-4.502-2.478-8.662-6.5-10.912a13.357 13.357 0 00-13 0C2.478 3.938 0 8.098 0 12.6v10.8c0 3.341 1.37 6.546 3.808 8.91C6.246 34.673 9.552 36 13 36zM1.857 12.6c0-3.858 2.123-7.424 5.571-9.352a11.45 11.45 0 0111.143 0c3.448 1.929 5.571 5.494 5.571 9.352v10.8c0 3.859-2.123 7.424-5.571 9.353a11.45 11.45 0 01-11.143 0c-3.448-1.93-5.571-5.495-5.571-9.353V12.6z" fill="#fff"/><path d="M12.106 17.53h.08l.179.195A.88.88 0 0013 18a.88.88 0 00.635-.274l.178-.195h.081v-.084L19 12.157l-1.27-1.319-3.836 3.992V5h-1.788v9.83L8.27 10.837 7 12.156l5.106 5.29v.084z" fill="#fff"/></svg>