<svg width="21" height="17" fill="none" xmlns="http://www.w3.org/2000/svg"><path fill-rule="evenodd" clip-rule="evenodd" d="M20.309 1.94c-.742.33-1.54.552-2.377.652a4.149 4.149 0 001.82-2.29 8.287 8.287 0 01-2.628 1.005 4.138 4.138 0 00-7.051 3.774A11.746 11.746 0 011.543.758a4.116 4.116 0 00-.56 2.08c0 1.435.73 2.702 1.841 3.444A4.125 4.125 0 01.95 5.764v.052a4.143 4.143 0 003.32 4.059 4.159 4.159 0 01-1.87.07 4.143 4.143 0 003.866 2.874A8.305 8.305 0 01.14 14.532a11.715 11.715 0 006.343 1.86c7.61 0 11.773-6.306 11.773-11.773 0-.18-.003-.359-.012-.535A8.426 8.426 0 0020.31 1.94z" fill="#fff"/></svg>