<svg width="24" height="24" fill="none" xmlns="http://www.w3.org/2000/svg"><rect x=".25" y=".25" width="23.5" height="23.5" rx="11.75" stroke="#EAEAEA" stroke-width=".5"/><path d="M9.312 7.194c0 .661-.493 1.197-1.306 1.197-.765 0-1.256-.536-1.256-1.197C6.747 6.517 7.257 6 8.04 6s1.256.517 1.272 1.194zM6.81 17.036v-7.7h2.421v7.7h-2.42zm3.875-5.242c0-.96-.033-1.759-.064-2.456h2.103l.111 1.07h.048c.315-.503 1.1-1.24 2.409-1.24 1.593 0 2.787 1.055 2.787 3.322v4.552h-2.423v-4.274c0-.991-.35-1.669-1.227-1.669-.67 0-1.067.457-1.243.898a1.701 1.701 0 00-.08.598v4.44h-2.421v-5.24z" fill="#EAEAEA"/></svg>