<svg width="388" height="154" fill="none" xmlns="http://www.w3.org/2000/svg"><path d="M99.34 127.68v21.39H59.29v-22.89H1.54V97.066L65.507 4.02H99.34V96h18.27v30.18H99.34v1.5zM57.79 96h1.5V57.973l-2.762 4.285-20.25 31.43L34.788 96H57.79zm176.385-75.56l.005.006c9.657 12.515 14.597 30.826 14.597 55.154 0 24.461-4.937 43.212-14.618 56.44-9.619 13.006-23.492 19.55-41.842 19.55-18.203 0-32.082-6.54-41.845-19.553-9.68-13.229-14.615-31.91-14.615-56.227 0-24.47 4.941-42.85 14.598-55.364C160.211 7.846 174.093 1.5 192.317 1.5c18.37 0 32.245 6.35 41.858 18.94zm-28.911 87.837l.004-.011c2.624-6.852 3.879-17.728 3.879-32.456 0-14.711-1.25-25.339-3.896-31.66-1.327-3.17-3.054-5.667-5.238-7.374-2.205-1.724-4.793-2.576-7.696-2.576-2.903 0-5.491.852-7.696 2.576-2.184 1.707-3.911 4.204-5.238 7.375-2.645 6.32-3.896 16.948-3.896 31.659 0 14.728 1.255 25.604 3.879 32.456l.004.011c1.319 3.37 3.035 6.027 5.212 7.849 2.204 1.843 4.805 2.764 7.735 2.764 2.93 0 5.531-.921 7.735-2.764 2.177-1.822 3.893-4.479 5.212-7.849zM334.144 4.02h33.831V96h18.27v30.18h-18.27v22.89h-40.05v-22.89h-57.75V97.066L334.144 4.02zM326.425 96h1.5V59.611l-2.747 4.112-20.005 29.944L303.614 96h22.811z" stroke="#73DDCF" stroke-width="3"/></svg>