<svg width="32" height="32" fill="none" xmlns="http://www.w3.org/2000/svg"><path d="M19.2 12.8a4.19 4.19 0 013.017 1.297c.8.832 1.25 1.958 1.25 3.134V22.4h-2.845v-5.17c0-.391-.15-.767-.416-1.044a1.396 1.396 0 00-1.006-.432c-.377 0-.739.155-1.005.432a1.507 1.507 0 00-.417 1.045V22.4h-2.844v-5.17a4.52 4.52 0 011.25-3.133A4.188 4.188 0 0119.2 12.8zm-7.467 1.067h-3.2v8.534h3.2v-8.534zm-1.6-2.134a1.6 1.6 0 100-3.2 1.6 1.6 0 000 3.2z" fill="#fff"/><rect x=".25" y=".25" width="31.5" height="31.5" rx="15.75" stroke="#fff" stroke-width=".5"/></svg>