<svg width="36" height="25" viewBox="0 0 36 25" fill="none" xmlns="http://www.w3.org/2000/svg">
<path fill-rule="evenodd" clip-rule="evenodd" d="M0 2.16232V22.5476C0 23.6566 0.811743 24.5555 1.93007 24.5555H33.7448C34.8619 24.5555 35.6748 23.6462 35.6748 22.5476V2.16232C35.6748 0.945291 34.9479 0 33.7448 0H1.93007C0.680517 0 0 0.968516 0 2.16232ZM2.93342 3.93793C2.93342 3.44671 3.23071 3.16568 3.70568 3.16568C3.99948 3.16568 15.5601 10.4911 16.2604 10.9208L18.0697 12.0461C18.6434 11.6617 19.2194 11.333 19.8139 10.9347C21.0275 10.159 31.8252 3.16568 32.1225 3.16568C32.5986 3.16568 32.8947 3.44671 32.8947 3.93793C32.8947 4.45819 31.8925 4.97497 31.2399 5.37329C27.1394 7.87239 23.04 10.5968 18.9801 13.1888C18.7432 13.349 18.2845 13.6916 17.9408 13.6394C17.5575 13.5801 5.79368 6.02245 3.65342 4.76361C3.33174 4.57432 2.93342 4.40129 2.93342 3.93793Z" fill="white"/>
</svg>
